<svg id="Layer_1" data-name="Layer 1" xmlns="http://www.w3.org/2000/svg" viewBox="0 0 482.22 297.35"><defs><style>.cls-1{fill:#fff;stroke:#000;}.cls-1,.cls-2{stroke-miterlimit:10;stroke-width:5px;}.cls-2{stroke:#fff;}.cls-3{font-size:28.95px;font-family:PokemonSolidNormal, Pokemon Solid;letter-spacing:0.14em;}</style></defs><title>ash-brock-logo</title><path class="cls-1" d="M539,479.85" transform="translate(-248.28 -315.51)"/><path class="cls-1" d="M487.57,491.11c0,50,36.66,74.84,131.87,73.17C711.11,562.67,728,522,728,483.07c0-38-21.39-74.69-62.4-92.53-16.33-7.1-35.78-11.21-58.22-11.21C529.12,379.33,487.57,421.15,487.57,491.11Z" transform="translate(-248.28 -315.51)"/><path class="cls-1" d="M502.84,432.41c-5.06-7.42-8.23-16.35-10.17-25.05A89.46,89.46,0,0,1,491,379.24c1-10.4,3.37-24.37,9.05-33.3,4.62-7.27,20.44-4,26.74-1.26,15.44,6.74,24.18,23.2,29.53,38.3.42,1.19.83,2.39,1.22,3.59" transform="translate(-248.28 -315.51)"/><path class="cls-1" d="M555.92,336.71" transform="translate(-248.28 -315.51)"/><path class="cls-1" d="M648.73,384.62s20.57-55.95,47.1-51.93,18.16,71.14,3.45,80.6" transform="translate(-248.28 -315.51)"/><path class="cls-1" d="M512.16,415.08s-10.92-48.61.33-54.24S539,394.05,539,394.05" transform="translate(-248.28 -315.51)"/><path class="cls-1" d="M665.28,390.59s20.1-49.86,25.73-41.81-6.43,54.4-6.43,54.4" transform="translate(-248.28 -315.51)"/><path class="cls-1" d="M585.67,487.89s23.32,17.69,41,0" transform="translate(-248.28 -315.51)"/><ellipse class="cls-2" cx="316.09" cy="141.82" rx="6.84" ry="11.26"/><ellipse class="cls-2" cx="393.28" cy="141.82" rx="6.84" ry="11.26"/><ellipse class="cls-1" cx="357.1" cy="157.5" rx="10.05" ry="4.42"/><path d="M624.76,480.55a63.32,63.32,0,0,1,16.62-4.79c1.9-.28,1.1-3.17-.8-2.89A66,66,0,0,0,623.25,478c-1.76.78-.24,3.37,1.51,2.59Z" transform="translate(-248.28 -315.51)"/><path d="M631,484.69a6,6,0,0,1,5.39-.13c1.74.83,3.26-1.76,1.52-2.59a9.23,9.23,0,0,0-8.42.13c-1.72.89-.2,3.48,1.51,2.59Z" transform="translate(-248.28 -315.51)"/><path d="M622.5,476.84l5.33-3.11a1.5,1.5,0,0,0-1.52-2.59L621,474.25a1.5,1.5,0,0,0,1.51,2.59Z" transform="translate(-248.28 -315.51)"/><path d="M588,474.8,581.16,472c-1.78-.74-2.56,2.16-.79,2.89l6.87,2.84c1.78.73,2.56-2.17.8-2.9Z" transform="translate(-248.28 -315.51)"/><path d="M585.61,478.35a18.2,18.2,0,0,0-12.46,3c-1.59,1.07-.09,3.67,1.52,2.59a15.64,15.64,0,0,1,10.94-2.57c1.91.23,1.89-2.77,0-3Z" transform="translate(-248.28 -315.51)"/><path d="M582,483.51a20.76,20.76,0,0,0-3.54,2.64c-1.42,1.32.7,3.44,2.12,2.12a16.54,16.54,0,0,1,2.94-2.17,1.5,1.5,0,0,0-1.52-2.59Z" transform="translate(-248.28 -315.51)"/><path class="cls-1" d="M317.07,472.73" transform="translate(-248.28 -315.51)"/><path class="cls-1" d="M274.47,484.55c0,52.46,30.35,78.59,109.16,76.83,75.89-1.68,89.86-44.43,89.86-85.27,0-39.85-17.7-78.41-51.65-97.14-13.52-7.46-29.61-11.77-48.19-11.77C308.87,367.2,274.47,411.1,274.47,484.55Z" transform="translate(-248.28 -315.51)"/><path class="cls-1" d="M287.12,422.92c-4.2-7.78-6.82-17.16-8.43-26.3a118.5,118.5,0,0,1-1.38-29.52c.84-10.92,2.79-25.59,7.49-35,3.82-7.64,16.92-4.21,22.13-1.33,12.78,7.08,20,24.36,24.45,40.21.35,1.25.68,2.51,1,3.78" transform="translate(-248.28 -315.51)"/><path class="cls-1" d="M489.17,367.27" transform="translate(-248.28 -315.51)"/><path class="cls-1" d="M232.1,63.21" transform="translate(-248.28 -315.51)"/><path class="cls-1" d="M407.88,372.75s17-58.74,39-54.52,15,74.69,2.85,84.63" transform="translate(-248.28 -315.51)"/><path class="cls-1" d="M294.83,404.73s-9-51,.28-57,22,34.87,22,34.87" transform="translate(-248.28 -315.51)"/><path class="cls-1" d="M421.58,379s16.64-52.35,21.3-43.9-5.33,57.12-5.33,57.12" transform="translate(-248.28 -315.51)"/><path class="cls-1" d="M355.68,481.18s19.3,18.57,33.95,0" transform="translate(-248.28 -315.51)"/><ellipse class="cls-2" cx="89.76" cy="133.58" rx="5.66" ry="11.82"/><ellipse class="cls-2" cx="153.66" cy="133.58" rx="5.66" ry="11.82"/><ellipse class="cls-1" cx="123.71" cy="150.05" rx="8.32" ry="4.64"/><path d="M388.17,473.41a43.85,43.85,0,0,1,13.69-5c1.9-.36,1.1-3.25-.79-2.89a46.54,46.54,0,0,0-14.42,5.34,1.5,1.5,0,0,0,1.52,2.59Z" transform="translate(-248.28 -315.51)"/><path d="M393.36,477.75a3.69,3.69,0,0,1,4.2-.13,1.5,1.5,0,0,0,1.51-2.59,6.67,6.67,0,0,0-7.23.13c-1.6,1.06-.1,3.66,1.52,2.59Z" transform="translate(-248.28 -315.51)"/><path d="M386.3,469.51l4.41-3.26a1.53,1.53,0,0,0,.53-2.05,1.49,1.49,0,0,0-2.05-.54l-4.41,3.26a1.54,1.54,0,0,0-.54,2.05,1.51,1.51,0,0,0,2.06.54Z" transform="translate(-248.28 -315.51)"/><path d="M358.07,467.66l-5.69-3c-1.71-.89-3.23,1.7-1.52,2.59l5.69,3c1.71.89,3.23-1.69,1.52-2.59Z" transform="translate(-248.28 -315.51)"/><path d="M356,471.28a13.43,13.43,0,0,0-11.13,3.31c-1.48,1.25.65,3.37,2.12,2.12a10.16,10.16,0,0,1,8.22-2.53c1.89.3,2.7-2.59.79-2.9Z" transform="translate(-248.28 -315.51)"/><path d="M352.52,476.65a17.37,17.37,0,0,0-3,2.76,1.55,1.55,0,0,0,0,2.12,1.53,1.53,0,0,0,2.13,0,15,15,0,0,1,2.37-2.29,1.54,1.54,0,0,0,.54-2.05,1.49,1.49,0,0,0-2.05-.54Z" transform="translate(-248.28 -315.51)"/><path d="M431.52,375.47c16.26-22.81,49.16-12.49,72.33-13.17,1.92-.06,1.93-3.06,0-3-24.64.72-57.71-9.48-74.92,14.66-1.12,1.57,1.48,3.07,2.59,1.51Z" transform="translate(-248.28 -315.51)"/><path d="M430.35,380.85a276.23,276.23,0,0,1,40.58.43c1.92.16,1.91-2.84,0-3a276.23,276.23,0,0,0-40.58-.43c-1.92.12-1.93,3.12,0,3Z" transform="translate(-248.28 -315.51)"/><path d="M437.83,358.19A58.46,58.46,0,0,1,477,348c1.92.18,1.91-2.82,0-3a61,61,0,0,0-40.71,10.64c-1.57,1.09-.07,3.69,1.52,2.59Z" transform="translate(-248.28 -315.51)"/><path d="M300.3,365.5c-17.37-2.13-35.86-3.87-51.33,6-1.62,1-.12,3.64,1.52,2.59,15-9.59,33-7.67,49.81-5.61,1.91.24,1.9-2.76,0-3Z" transform="translate(-248.28 -315.51)"/><path d="M300.1,375.57c-11.73.68-27.83.58-35.55,11-1.15,1.55,1.45,3.05,2.59,1.51,6.83-9.18,22.68-8.87,33-9.47,1.92-.11,1.93-3.11,0-3Z" transform="translate(-248.28 -315.51)"/><path d="M300.45,390.14c-9.76-1-28.82-2.39-31.77,10.31-.44,1.88,2.46,2.68,2.89.8,2.48-10.68,20.64-8.92,28.88-8.11,1.92.19,1.91-2.81,0-3Z" transform="translate(-248.28 -315.51)"/><text class="cls-3" transform="translate(126.1 283.62)">Ash and Brock</text></svg>